<svg width="2500" height="2500" viewBox="0 0 2500 2500" fill="none" xmlns="http://www.w3.org/2000/svg">
<rect width="2500" height="2500" rx="400" fill="#C5D2F8"/>
<path d="M1871.98 1501.68C1834.49 1501.68 1838.59 1581.73 1704.91 1581.73C1462.19 1581.73 1255.91 1436.47 1074.93 1282.33L1120.64 1165.57C1295.52 1165.57 1471.86 1026.41 1471.86 852.785C1471.86 750.997 1409.99 701.031 1327.85 701.031C1175.22 701.031 1103.41 828.796 1023.79 1046.95C974.102 1028.53 954.759 979.224 954.759 947.946C954.759 897.98 986.821 854.508 1031.07 854.508C1051.74 854.508 1064.86 846.821 1064.86 825.615C1064.86 776.312 1013.72 742.25 934.09 742.25C821.342 742.25 753.905 827.073 753.905 925.945C753.905 1049.2 843.335 1123.16 961.648 1144.36L972.645 1147.15L942.305 1213.42C891.959 1196.98 866.388 1190.62 807.563 1190.62C676.001 1190.62 585.246 1283.13 585.246 1384.25C585.246 1490.02 659.705 1551.51 758.145 1551.51C866.388 1551.51 948.532 1478.88 1001 1384.92C1189.79 1567.42 1408.67 1798.03 1700.81 1798.03C1835.15 1798.03 1914.25 1696.24 1914.25 1616.19C1914.25 1560.53 1894.9 1501.68 1871.98 1501.68Z" fill="#4F0C28"/>
</svg>
